<?xml version="1.0" encoding="UTF-8" standalone="no"?>
<!DOCTYPE svg PUBLIC "-//W3C//DTD SVG 1.1//EN" "http://www.w3.org/Graphics/SVG/1.1/DTD/svg11.dtd">
<svg width="100%" height="100%" viewBox="0 0 100 100" version="1.1" xmlns="http://www.w3.org/2000/svg" xmlns:xlink="http://www.w3.org/1999/xlink" xml:space="preserve" xmlns:serif="http://www.serif.com/" style="fill-rule:evenodd;clip-rule:evenodd;stroke-linejoin:round;stroke-miterlimit:2;">
    <g transform="matrix(0.125,0,0,0.125,0,0)">
        <path d="M772.574,545.748C714.26,694.531 569.35,800 400,800C347.767,800 297.858,789.967 252.097,771.722L252.097,545.748L772.574,545.748ZM140.788,545.748L140.788,704.555C90.985,662.112 51.706,607.688 27.426,545.748L140.788,545.748ZM252.097,28.278C297.858,10.033 347.767,0 400,0C620.766,0 800,179.234 800,400C800,427.287 797.262,453.939 792.05,479.675L252.097,479.675L252.097,28.278ZM140.788,479.675L7.95,479.675C2.738,453.939 0,427.287 0,400C0,278.093 54.653,168.85 140.788,95.445L140.788,479.675Z" style="fill:white;"/>
    </g>
</svg>
